<?xml version="1.0" encoding="utf-8"?>
<!-- Generator: Adobe Illustrator 16.0.0, SVG Export Plug-In . SVG Version: 6.00 Build 0)  -->
<!DOCTYPE svg PUBLIC "-//W3C//DTD SVG 1.1//EN" "http://www.w3.org/Graphics/SVG/1.1/DTD/svg11.dtd">
<svg version="1.1" id="Layer_1" xmlns="http://www.w3.org/2000/svg" xmlns:xlink="http://www.w3.org/1999/xlink" x="0px" y="0px"
	 width="400px" height="400px" viewBox="0 0 400 400" enable-background="new 0 0 400 400" xml:space="preserve">
<g>
	<defs>
		<rect id="SVGID_1_" x="76.823" y="15.5" width="246.155" height="368"/>
	</defs>
	<clipPath id="SVGID_2_">
		<use xlink:href="#SVGID_1_"  overflow="visible"/>
	</clipPath>
	<path clip-path="url(#SVGID_2_)" fill="#072B61" d="M211.228,335.941c0,16.478-25.2,29.803-56.273,29.803
		c-31.074,0-56.292-13.325-56.292-29.803c0-16.494,25.218-29.83,56.292-29.83C186.028,306.111,211.228,319.447,211.228,335.941
		 M165.519,35.724V24.079L144.492,15.5v272.911c-38.652,3.747-67.665,23.812-67.665,47.502c0,26.298,34.985,47.587,78.183,47.587
		c43.181,0,78.179-21.289,78.179-47.587c0-23.69-29.279-43.736-67.67-47.502V141.204h157.459V35.724H165.519z"/>
	<path clip-path="url(#SVGID_2_)" fill="#072B61" d="M111.152,253.87h-2.209v-4.091h2.475c1.38,0,2.93,0.269,2.93,2.092
		C114.348,253.825,112.558,253.87,111.152,253.87 M118.26,251.899c0-4.196-2.943-5.458-6.447-5.458h-6.659v17.943h3.79v-7.178h1.873
		l3.58,7.178h4.536l-4.364-7.57C116.998,256.357,118.26,254.404,118.26,251.899"/>
	<path clip-path="url(#SVGID_2_)" fill="#072B61" d="M111.509,269.852c-7.453,0-13.533-6.364-13.533-14.158
		c0-7.804,6.08-14.139,13.533-14.139c7.443,0,13.495,6.335,13.495,14.139C125.003,263.487,118.952,269.852,111.509,269.852
		 M111.509,238.069c-9.295,0-16.846,7.895-16.846,17.624c0,9.719,7.551,17.634,16.846,17.634c9.271,0,16.83-7.915,16.83-17.634
		C128.338,245.964,120.78,238.069,111.509,238.069"/>
</g>
<path fill="#FFFFFF" d="M165.515,136.747h42.815v-35.858h-42.815V136.747z M234.001,136.747h85.66v-35.858h-85.66V136.747z
	 M165.515,74.02h42.815V38.181h-42.815V74.02z M234.001,74.02h85.66V38.181h-85.66V74.02z"/>
</svg>
