<?xml version="1.0" encoding="utf-8"?>
<!-- Generator: Adobe Illustrator 25.0.0, SVG Export Plug-In . SVG Version: 6.00 Build 0)  -->
<svg version="1.1" id="Layer_1" xmlns="http://www.w3.org/2000/svg" xmlns:xlink="http://www.w3.org/1999/xlink" x="0px" y="0px"
	 viewBox="0 0 56.69 56.69" style="enable-background:new 0 0 56.69 56.69;" xml:space="preserve">
<style type="text/css">
	.st0{display:none;}
	.st1{display:inline;}
	.st2{fill:#705A42;}
	.st3{fill:#FFFFFF;}
	.st4{display:inline;fill:#705A42;}
	.st5{fill:#539326;}
	.st6{display:inline;fill:#539326;}
	.st7{clip-path:url(#SVGID_2_);fill:#FFFFFF;}
	.st8{clip-path:url(#SVGID_4_);}
	.st9{clip-path:url(#SVGID_4_);fill:#FFFFFF;}
	.st10{clip-path:url(#SVGID_6_);fill:#FFFFFF;}
</style>
<g class="st0">
	<g class="st1">
		<g>
			<g>
				<path class="st2" d="M2.65,28.26c0,14.09,11.43,25.51,25.51,25.51c14.09,0,25.51-11.42,25.51-25.51
					c0-14.09-11.42-25.51-25.51-25.51C14.07,2.75,2.65,14.17,2.65,28.26z"/>
			</g>
		</g>
	</g>
	<g class="st1">
		<rect x="7.6" y="25.12" class="st3" width="41.12" height="9.35"/>
	</g>
	<g class="st1">
		<path class="st3" d="M17.31,45.77v-5.71h1.52v0.32c0,0,0.79-0.46,1.35-0.46c0.64,0,1.09,0.17,1.43,0.54c0,0,1.05-0.54,1.92-0.54
			c1.56,0,2.01,0.91,2.01,2.75v3.1h-1.53v-3.05c0-0.87-0.12-1.43-0.8-1.43c-0.46,0-1.06,0.22-1.06,0.22s0.05,0.86,0.05,1.3v2.96
			h-1.53v-2.94c0-1.03-0.09-1.54-0.8-1.54c-0.5,0-1.02,0.21-1.02,0.21v4.27H17.31z"/>
		<path class="st3" d="M26.79,42.73v-1.07l1.29-1.3c0.78-0.8,1.22-1.27,1.22-1.85c0-0.61-0.28-0.79-0.98-0.79
			c-0.62,0-1.42,0.14-1.42,0.14l-0.06-0.97c0,0,0.89-0.27,1.81-0.27c1.38,0,1.96,0.6,1.96,1.72c0,0.93-0.35,1.46-1.35,2.36
			l-1.05,0.95h2.5v1.1H26.79z"/>
		<path class="st3" d="M34.95,37.56l1.35,0.48L33,46.16l-1.35-0.48L34.95,37.56z"/>
		<path class="st3" d="M37.41,37.77h1.53v8h-1.53V37.77z"/>
	</g>
	<g class="st1">
		<path class="st3" d="M13.7,12.07h1.82v10.05h-2v-7.67l-2.07,1.4l-0.91-1.57L13.7,12.07z"/>
		<path class="st3" d="M24.76,17.16c0,3.81-1.33,5.15-3.7,5.15c-2.37,0-3.7-1.34-3.7-5.15c0-3.81,1.33-5.27,3.7-5.27
			C23.43,11.89,24.76,13.35,24.76,17.16z M19.4,17.16c0,2.47,0.51,3.32,1.66,3.32s1.63-0.85,1.63-3.32c0-2.62-0.48-3.44-1.63-3.44
			S19.4,14.54,19.4,17.16z"/>
		<path class="st3" d="M26.49,17.14h4.28V19h-4.28V17.14z"/>
		<path class="st3" d="M34.36,12.07h1.82v10.05h-2v-7.67l-2.07,1.4l-0.91-1.57L34.36,12.07z"/>
		<path class="st3" d="M42.58,20.46h-4.05v-1.6l2.36-6.79h2.2l-2.56,6.56h2.05v-2.82h2v2.82h0.91v1.83h-0.91v1.66h-2V20.46z"/>
	</g>
</g>
<g class="st0">
	<path class="st4" d="M2.65,28.22c0,14.09,11.42,25.51,25.51,25.51c14.09,0,25.51-11.42,25.51-25.51
		c0-14.09-11.42-25.51-25.51-25.51C14.07,2.71,2.65,14.13,2.65,28.22z"/>
	<g class="st1">
		<path class="st3" d="M45.51,23.66l-4.35-3.4v-5.5c0-0.75-0.61-1.36-1.36-1.36h-1.77c-0.75,0-1.36,0.61-1.36,1.36v1.99l-6.93-5.41
			c-0.9-0.7-2.27-0.7-3.17,0l-15.76,12.3c-0.5,0.39-0.59,1.11-0.2,1.61c0.39,0.5,1.11,0.59,1.61,0.2l2.92-2.28c0,0.35,0,0.72,0,1.12
			v16.13c0,1.56,1.27,2.83,2.83,2.83h20.37c1.56,0,2.83-1.28,2.83-2.83V24.31c0-0.4,0-0.78,0-1.12l2.92,2.28
			c0.21,0.16,0.46,0.24,0.71,0.24c0.34,0,0.68-0.15,0.91-0.44C46.1,24.77,46.01,24.05,45.51,23.66z M38.94,39.74
			c0,0.68-0.55,1.23-1.23,1.23h-19.1c-0.68,0-1.23-0.56-1.23-1.23V23.46c0-0.68,0.01-1.23,0.02-1.23c0.01,0,0.46-0.34,0.99-0.76
			l8.8-6.86c0.54-0.42,1.41-0.42,1.95,0l8.8,6.86c0.54,0.42,0.98,0.76,0.99,0.76c0.01,0,0.02,0.55,0.02,1.23V39.74z"/>
		<path class="st3" d="M28.62,20.6c-0.28-0.4-0.72-0.4-1,0l-3.31,4.87c-0.27,0.4-0.1,0.73,0.39,0.73h6.92
			c0.48,0,0.65-0.33,0.38-0.72L28.62,20.6z"/>
	</g>
</g>
<g class="st0">
	<g class="st1">
		<g>
			<g>
				<path class="st5" d="M2.68,28.22c0,14.09,11.42,25.51,25.51,25.51c14.09,0,25.51-11.42,25.51-25.51
					c0-14.09-11.42-25.51-25.51-25.51C14.11,2.71,2.68,14.14,2.68,28.22z"/>
			</g>
		</g>
	</g>
	<g class="st1">
		<rect x="7.63" y="25.08" class="st3" width="41.12" height="9.35"/>
	</g>
	<g class="st1">
		<path class="st3" d="M17.34,45.73v-5.71h1.52v0.32c0,0,0.79-0.46,1.35-0.46c0.64,0,1.09,0.17,1.43,0.54c0,0,1.05-0.54,1.92-0.54
			c1.55,0,2.01,0.91,2.01,2.75v3.1h-1.53v-3.05c0-0.87-0.11-1.43-0.8-1.43c-0.46,0-1.06,0.22-1.06,0.22s0.05,0.86,0.05,1.3v2.96
			h-1.53V42.8c0-1.03-0.09-1.54-0.8-1.54c-0.5,0-1.02,0.21-1.02,0.21v4.27H17.34z"/>
		<path class="st3" d="M26.82,42.69v-1.07l1.29-1.31c0.79-0.8,1.22-1.27,1.22-1.85c0-0.61-0.28-0.79-0.99-0.79
			c-0.62,0-1.42,0.14-1.42,0.14l-0.06-0.98c0,0,0.89-0.27,1.81-0.27c1.38,0,1.96,0.6,1.96,1.72c0,0.93-0.36,1.46-1.35,2.36
			l-1.05,0.95h2.5v1.1H26.82z"/>
		<path class="st3" d="M34.98,37.53l1.35,0.48l-3.29,8.11l-1.35-0.48L34.98,37.53z"/>
		<path class="st3" d="M37.44,37.73h1.53v8h-1.53V37.73z"/>
	</g>
	<g class="st1">
		<path class="st3" d="M23.6,10.77h2.16v11.32h-2.37v-8.64l-2.45,1.58l-1.08-1.77L23.6,10.77z"/>
		<path class="st3" d="M37.39,16.5c0,4.29-1.58,5.8-4.39,5.8s-4.39-1.51-4.39-5.8c0-4.29,1.58-5.93,4.39-5.93
			S37.39,12.21,37.39,16.5z M31.04,16.5c0,2.78,0.6,3.74,1.97,3.74c1.37,0,1.94-0.96,1.94-3.74c0-2.95-0.57-3.87-1.94-3.87
			C31.65,12.62,31.04,13.55,31.04,16.5z"/>
	</g>
</g>
<g class="st0">
	<path class="st6" d="M2.82,28.08c0,14.09,11.42,25.51,25.51,25.51c14.09,0,25.51-11.41,25.51-25.51
		c0-14.09-11.42-25.51-25.51-25.51C14.24,2.57,2.82,13.99,2.82,28.08z"/>
	<g class="st1">
		<path class="st3" d="M45.69,23.52l-4.35-3.4v-5.5c0-0.75-0.61-1.36-1.36-1.36h-1.77c-0.75,0-1.36,0.61-1.36,1.36v1.99l-6.93-5.41
			c-0.9-0.71-2.27-0.7-3.17,0l-15.76,12.3c-0.5,0.39-0.59,1.11-0.2,1.61c0.39,0.5,1.11,0.59,1.61,0.2l2.92-2.28
			c0,0.34,0,0.72,0,1.12V40.3c0,1.56,1.28,2.84,2.84,2.84h20.37c1.56,0,2.83-1.28,2.83-2.84V24.17c0-0.4,0-0.78,0-1.12l2.92,2.28
			c0.21,0.17,0.46,0.25,0.71,0.25c0.34,0,0.68-0.15,0.91-0.44C46.28,24.63,46.19,23.91,45.69,23.52z M39.12,39.6
			c0,0.68-0.55,1.23-1.23,1.23h-19.1c-0.68,0-1.24-0.55-1.24-1.23V23.32c0-0.68,0.01-1.23,0.02-1.23c0.01,0,0.46-0.34,1-0.76
			l8.79-6.86c0.53-0.42,1.41-0.42,1.94,0l8.8,6.86c0.54,0.42,0.98,0.76,0.99,0.76c0.01,0,0.02,0.55,0.02,1.23V39.6z"/>
		<path class="st3" d="M32.03,26.32c-0.4-0.27-0.73-0.1-0.73,0.38v6.92c0,0.48,0.33,0.65,0.72,0.38l4.88-3.38
			c0.4-0.27,0.4-0.72,0-0.99L32.03,26.32z"/>
		<path class="st3" d="M24.68,26.32l-4.87,3.31c-0.4,0.27-0.4,0.72,0,0.99l4.88,3.38c0.4,0.27,0.72,0.11,0.72-0.38v-6.92
			C25.4,26.23,25.08,26.05,24.68,26.32z"/>
	</g>
</g>
<rect x="33.13" y="23.01" class="st3" width="1.48" height="2.28"/>
<rect x="31.19" y="21.21" class="st3" width="5.37" height="1.48"/>
<polygon class="st3" points="24.17,23.75 23.18,23.29 25.86,17.87 29.48,15.38 30.1,16.28 26.72,18.6 "/>
<polygon class="st3" points="24.24,24.31 22.65,23.55 21.53,25.12 21.53,25.11 17.25,34.33 19.15,35.24 23.61,26.11 23.61,26.11 "/>
<g>
	<defs>
		<rect id="SVGID_1_" x="7.09" y="7.13" width="42.52" height="42.52"/>
	</defs>
	<clipPath id="SVGID_2_">
		<use xlink:href="#SVGID_1_"  style="overflow:visible;"/>
	</clipPath>
	<path class="st7" d="M24.37,27.89c-0.13,0.24-0.43,0.33-0.66,0.2c-0.24-0.13-0.33-0.43-0.2-0.66c0.13-0.24,0.43-0.33,0.67-0.2
		C24.41,27.36,24.5,27.65,24.37,27.89 M21.71,26.35l0-0.43l-4.03-0.03l-0.03,3.2l0.23,0l1.57,2.39l1.98-1.3l-0.7-1.07l0.94,0.01
		l0-0.43l1.05,0.01c-0.18,0.71-1.28,5-1.38,5.72c-0.11,0.72,0.46,0.87,0.46,0.87s1.86,0.41,1.23-0.19
		c-0.34-0.32-0.02-1.51-0.02-1.51s0.35-1.22,0.59-2.52c0.24-1.3,1.51-2.35,1.51-2.35l0.02-2.35L21.71,26.35z"/>
	<path class="st7" d="M25.17,35.68c-0.31,2.11-0.57,3.92-3.75,4.16c-1.27,0.09-2.19-0.19-2.71-0.85c-0.83-1.03-0.56-2.76-0.4-3.47
		l-0.81-0.38c-0.18,0.68-0.64,2.95,0.52,4.4c0.63,0.79,1.62,1.19,2.93,1.19c0.17,0,0.34-0.01,0.52-0.02
		c3.88-0.28,4.23-2.74,4.55-4.9c0.21-1.42,0.4-2.68,1.47-3.4v-1C25.67,32.25,25.4,34.06,25.17,35.68"/>
	<path class="st7" d="M32.28,14.4c-0.12,0.08-0.27,0.05-0.35-0.06c-0.08-0.12-0.05-0.27,0.06-0.35c0.11-0.08,0.27-0.05,0.35,0.06
		C32.42,14.17,32.4,14.32,32.28,14.4"/>
	<path class="st7" d="M31.57,14.89c-0.12,0.08-0.27,0.05-0.35-0.06c-0.08-0.11-0.05-0.27,0.06-0.35c0.12-0.08,0.27-0.05,0.35,0.06
		C31.71,14.66,31.69,14.82,31.57,14.89"/>
	<path class="st7" d="M30.86,15.39c-0.12,0.08-0.27,0.05-0.35-0.06c-0.08-0.11-0.05-0.27,0.06-0.35c0.11-0.08,0.27-0.05,0.35,0.06
		C31.01,15.15,30.98,15.31,30.86,15.39"/>
	<path class="st7" d="M32.68,15.94c-0.14,0.02-0.27-0.07-0.29-0.21c-0.02-0.14,0.07-0.27,0.21-0.29c0.14-0.02,0.27,0.07,0.29,0.21
		C32.91,15.78,32.81,15.92,32.68,15.94"/>
	<path class="st7" d="M31.82,16.08c-0.14,0.02-0.27-0.07-0.29-0.21c-0.02-0.14,0.07-0.27,0.21-0.29c0.14-0.02,0.27,0.07,0.29,0.21
		C32.06,15.92,31.96,16.05,31.82,16.08"/>
	<path class="st7" d="M30.97,16.21c-0.14,0.02-0.27-0.07-0.29-0.21c-0.02-0.14,0.07-0.27,0.21-0.29c0.14-0.02,0.27,0.07,0.29,0.21
		C31.2,16.06,31.11,16.19,30.97,16.21"/>
	<path class="st7" d="M30.71,13.03c-0.07,0.12-0.03,0.28,0.09,0.35c0.12,0.07,0.28,0.03,0.34-0.09c0.07-0.12,0.03-0.28-0.09-0.35
		S30.77,12.91,30.71,13.03"/>
	<path class="st7" d="M30.28,13.78c-0.07,0.12-0.03,0.28,0.09,0.35c0.12,0.07,0.28,0.03,0.35-0.09c0.07-0.12,0.03-0.28-0.09-0.35
		C30.5,13.62,30.35,13.66,30.28,13.78"/>
	<path class="st7" d="M29.85,14.53c-0.07,0.12-0.03,0.28,0.09,0.35c0.12,0.07,0.28,0.03,0.34-0.09c0.07-0.12,0.03-0.28-0.09-0.35
		C30.07,14.37,29.92,14.41,29.85,14.53"/>
</g>
<polygon class="st3" points="32.27,36.83 31.73,35.5 24.89,35.5 24.35,36.83 "/>
<polygon class="st3" points="37.04,36.83 35.7,35.5 32.05,35.5 32.73,36.83 "/>
<polygon class="st3" points="24.57,35.5 20.99,35.5 19.65,36.83 23.9,36.83 "/>
<polygon class="st3" points="28.05,37.11 19.36,37.11 17.4,39.04 27.97,39.04 "/>
<polygon class="st3" points="39.29,39.04 37.33,37.11 28.61,37.11 28.7,39.04 "/>
<polygon class="st3" points="17.12,39.32 14.92,41.49 21.63,41.49 22.69,39.32 "/>
<polygon class="st3" points="41.77,41.49 39.57,39.32 33.97,39.32 35.03,41.49 "/>
<polygon class="st3" points="23.38,39.32 22.49,41.49 34.16,41.49 33.28,39.32 "/>
<g>
	<defs>
		<rect id="SVGID_3_" x="6.79" y="7.09" width="42.52" height="42.52"/>
	</defs>
	<clipPath id="SVGID_4_">
		<use xlink:href="#SVGID_3_"  style="overflow:visible;"/>
	</clipPath>
	<path class="st8" d="M6.79,28.34c0,11.74,9.52,21.26,21.26,21.26c11.74,0,21.26-9.52,21.26-21.26c0-11.74-9.52-21.26-21.26-21.26
		C16.31,7.09,6.79,16.61,6.79,28.34"/>
	<path class="st9" d="M34.3,35.18l2.04-3.94c0,0-3.52-2.54-1.56-6.41c1.96-3.87,4.67-5.49,4.4-8.26c-0.27-2.7-1.15-3.38-1.19-3.41
		c0,0,0,0,0,0l0,0v0c-0.05-0.01-1.13-0.32-3.46,1.06c-2.39,1.41-2.1,4.55-4.06,8.43c-1.96,3.87-6.09,2.53-6.09,2.53l-2.04,3.94
		L34.3,35.18z"/>
</g>
<polygon class="st3" points="21.97,29.89 33.95,35.97 33.33,37.26 21.35,31.19 "/>
<g>
	<defs>
		<rect id="SVGID_5_" x="6.79" y="7.09" width="42.52" height="42.52"/>
	</defs>
	<clipPath id="SVGID_6_">
		<use xlink:href="#SVGID_5_"  style="overflow:visible;"/>
	</clipPath>
	<path class="st10" d="M20.85,32.17c0,0-3.2,7.71-5.7,7.71c0,0,1.9,0.19,3.91,0.38c0.2,0.02,1.3-0.38,3.42-4.13
		c0.09-0.16-0.28,2.71-2.08,4.23c0,0,2.43,0.27,2.78,0.27c0.87,0,2.72-2.66,2.72-2.66s-0.28,2.45-0.77,2.66
		c-0.49,0.22,3.76,0,3.76,0s3.31-0.16,3.8-2.44L20.85,32.17z"/>
</g>
</svg>
