<?xml version="1.0" encoding="utf-8"?>
<!-- Generator: Adobe Illustrator 25.0.0, SVG Export Plug-In . SVG Version: 6.00 Build 0)  -->
<svg version="1.1" id="Layer_1" xmlns="http://www.w3.org/2000/svg" xmlns:xlink="http://www.w3.org/1999/xlink" x="0px" y="0px"
	 viewBox="0 0 56.69 56.69" style="enable-background:new 0 0 56.69 56.69;" xml:space="preserve">
<style type="text/css">
	.st0{display:none;}
	.st1{display:inline;}
	.st2{fill:#705A42;}
	.st3{fill:#FFFFFF;}
	.st4{display:inline;fill:#705A42;}
	.st5{fill:#539326;}
	.st6{display:inline;fill:#539326;}
	.st7{clip-path:url(#SVGID_2_);}
	.st8{clip-path:url(#SVGID_4_);fill:#FFFFFF;}
	.st9{clip-path:url(#SVGID_4_);fill:none;stroke:#FFFFFF;stroke-width:0.949;stroke-linecap:round;stroke-miterlimit:10;}
	
		.st10{clip-path:url(#SVGID_4_);fill:none;stroke:#FFFFFF;stroke-width:0.949;stroke-linecap:round;stroke-miterlimit:10;stroke-dasharray:3.414,3.414,1.347,3.414;stroke-dashoffset:6;}
	
		.st11{clip-path:url(#SVGID_4_);fill:none;stroke:#FFFFFF;stroke-width:0.949;stroke-linecap:round;stroke-miterlimit:10;stroke-dasharray:3.414,3.414,1.346,3.414;stroke-dashoffset:6;}
</style>
<g class="st0">
	<g class="st1">
		<g>
			<g>
				<path class="st2" d="M2.65,28.26c0,14.09,11.43,25.51,25.51,25.51c14.09,0,25.51-11.42,25.51-25.51
					c0-14.09-11.42-25.51-25.51-25.51C14.07,2.75,2.65,14.17,2.65,28.26z"/>
			</g>
		</g>
	</g>
	<g class="st1">
		<rect x="7.6" y="25.12" class="st3" width="41.12" height="9.35"/>
	</g>
	<g class="st1">
		<path class="st3" d="M17.31,45.77v-5.71h1.52v0.32c0,0,0.79-0.46,1.35-0.46c0.64,0,1.09,0.17,1.43,0.54c0,0,1.05-0.54,1.92-0.54
			c1.56,0,2.01,0.91,2.01,2.75v3.1h-1.53v-3.05c0-0.87-0.12-1.43-0.8-1.43c-0.46,0-1.06,0.22-1.06,0.22s0.05,0.86,0.05,1.3v2.96
			h-1.53v-2.94c0-1.03-0.09-1.54-0.8-1.54c-0.5,0-1.02,0.21-1.02,0.21v4.27H17.31z"/>
		<path class="st3" d="M26.79,42.73v-1.07l1.29-1.3c0.78-0.8,1.22-1.27,1.22-1.85c0-0.61-0.28-0.79-0.98-0.79
			c-0.62,0-1.42,0.14-1.42,0.14l-0.06-0.97c0,0,0.89-0.27,1.81-0.27c1.38,0,1.96,0.6,1.96,1.72c0,0.93-0.35,1.46-1.35,2.36
			l-1.05,0.95h2.5v1.1H26.79z"/>
		<path class="st3" d="M34.95,37.56l1.35,0.48L33,46.16l-1.35-0.48L34.95,37.56z"/>
		<path class="st3" d="M37.41,37.77h1.53v8h-1.53V37.77z"/>
	</g>
	<g class="st1">
		<path class="st3" d="M13.7,12.07h1.82v10.05h-2v-7.67l-2.07,1.4l-0.91-1.57L13.7,12.07z"/>
		<path class="st3" d="M24.76,17.16c0,3.81-1.33,5.15-3.7,5.15c-2.37,0-3.7-1.34-3.7-5.15c0-3.81,1.33-5.27,3.7-5.27
			C23.43,11.89,24.76,13.35,24.76,17.16z M19.4,17.16c0,2.47,0.51,3.32,1.66,3.32s1.63-0.85,1.63-3.32c0-2.62-0.48-3.44-1.63-3.44
			S19.4,14.54,19.4,17.16z"/>
		<path class="st3" d="M26.49,17.14h4.28V19h-4.28V17.14z"/>
		<path class="st3" d="M34.36,12.07h1.82v10.05h-2v-7.67l-2.07,1.4l-0.91-1.57L34.36,12.07z"/>
		<path class="st3" d="M42.58,20.46h-4.05v-1.6l2.36-6.79h2.2l-2.56,6.56h2.05v-2.82h2v2.82h0.91v1.83h-0.91v1.66h-2V20.46z"/>
	</g>
</g>
<g class="st0">
	<path class="st4" d="M2.65,28.22c0,14.09,11.42,25.51,25.51,25.51c14.09,0,25.51-11.42,25.51-25.51
		c0-14.09-11.42-25.51-25.51-25.51C14.07,2.71,2.65,14.13,2.65,28.22z"/>
	<g class="st1">
		<path class="st3" d="M45.51,23.66l-4.35-3.4v-5.5c0-0.75-0.61-1.36-1.36-1.36h-1.77c-0.75,0-1.36,0.61-1.36,1.36v1.99l-6.93-5.41
			c-0.9-0.7-2.27-0.7-3.17,0l-15.76,12.3c-0.5,0.39-0.59,1.11-0.2,1.61c0.39,0.5,1.11,0.59,1.61,0.2l2.92-2.28c0,0.35,0,0.72,0,1.12
			v16.13c0,1.56,1.27,2.83,2.83,2.83h20.37c1.56,0,2.83-1.28,2.83-2.83V24.31c0-0.4,0-0.78,0-1.12l2.92,2.28
			c0.21,0.16,0.46,0.24,0.71,0.24c0.34,0,0.68-0.15,0.91-0.44C46.1,24.77,46.01,24.05,45.51,23.66z M38.94,39.74
			c0,0.68-0.55,1.23-1.23,1.23h-19.1c-0.68,0-1.23-0.56-1.23-1.23V23.46c0-0.68,0.01-1.23,0.02-1.23c0.01,0,0.46-0.34,0.99-0.76
			l8.8-6.86c0.54-0.42,1.41-0.42,1.95,0l8.8,6.86c0.54,0.42,0.98,0.76,0.99,0.76c0.01,0,0.02,0.55,0.02,1.23V39.74z"/>
		<path class="st3" d="M28.62,20.6c-0.28-0.4-0.72-0.4-1,0l-3.31,4.87c-0.27,0.4-0.1,0.73,0.39,0.73h6.92
			c0.48,0,0.65-0.33,0.38-0.72L28.62,20.6z"/>
	</g>
</g>
<g class="st0">
	<g class="st1">
		<g>
			<g>
				<path class="st5" d="M2.68,28.22c0,14.09,11.42,25.51,25.51,25.51c14.09,0,25.51-11.42,25.51-25.51
					c0-14.09-11.42-25.51-25.51-25.51C14.11,2.71,2.68,14.14,2.68,28.22z"/>
			</g>
		</g>
	</g>
	<g class="st1">
		<rect x="7.63" y="25.08" class="st3" width="41.12" height="9.35"/>
	</g>
	<g class="st1">
		<path class="st3" d="M17.34,45.73v-5.71h1.52v0.32c0,0,0.79-0.46,1.35-0.46c0.64,0,1.09,0.17,1.43,0.54c0,0,1.05-0.54,1.92-0.54
			c1.55,0,2.01,0.91,2.01,2.75v3.1h-1.53v-3.05c0-0.87-0.11-1.43-0.8-1.43c-0.46,0-1.06,0.22-1.06,0.22s0.05,0.86,0.05,1.3v2.96
			h-1.53V42.8c0-1.03-0.09-1.54-0.8-1.54c-0.5,0-1.02,0.21-1.02,0.21v4.27H17.34z"/>
		<path class="st3" d="M26.82,42.69v-1.07l1.29-1.31c0.79-0.8,1.22-1.27,1.22-1.85c0-0.61-0.28-0.79-0.99-0.79
			c-0.62,0-1.42,0.14-1.42,0.14l-0.06-0.98c0,0,0.89-0.27,1.81-0.27c1.38,0,1.96,0.6,1.96,1.72c0,0.93-0.36,1.46-1.35,2.36
			l-1.05,0.95h2.5v1.1H26.82z"/>
		<path class="st3" d="M34.98,37.53l1.35,0.48l-3.29,8.11l-1.35-0.48L34.98,37.53z"/>
		<path class="st3" d="M37.44,37.73h1.53v8h-1.53V37.73z"/>
	</g>
	<g class="st1">
		<path class="st3" d="M23.6,10.77h2.16v11.32h-2.37v-8.64l-2.45,1.58l-1.08-1.77L23.6,10.77z"/>
		<path class="st3" d="M37.39,16.5c0,4.29-1.58,5.8-4.39,5.8s-4.39-1.51-4.39-5.8c0-4.29,1.58-5.93,4.39-5.93
			S37.39,12.21,37.39,16.5z M31.04,16.5c0,2.78,0.6,3.74,1.97,3.74c1.37,0,1.94-0.96,1.94-3.74c0-2.95-0.57-3.87-1.94-3.87
			C31.65,12.62,31.04,13.55,31.04,16.5z"/>
	</g>
</g>
<g class="st0">
	<path class="st6" d="M2.82,28.08c0,14.09,11.42,25.51,25.51,25.51c14.09,0,25.51-11.41,25.51-25.51
		c0-14.09-11.42-25.51-25.51-25.51C14.24,2.57,2.82,13.99,2.82,28.08z"/>
	<g class="st1">
		<path class="st3" d="M45.69,23.52l-4.35-3.4v-5.5c0-0.75-0.61-1.36-1.36-1.36h-1.77c-0.75,0-1.36,0.61-1.36,1.36v1.99l-6.93-5.41
			c-0.9-0.71-2.27-0.7-3.17,0l-15.76,12.3c-0.5,0.39-0.59,1.11-0.2,1.61c0.39,0.5,1.11,0.59,1.61,0.2l2.92-2.28
			c0,0.34,0,0.72,0,1.12V40.3c0,1.56,1.28,2.84,2.84,2.84h20.37c1.56,0,2.83-1.28,2.83-2.84V24.17c0-0.4,0-0.78,0-1.12l2.92,2.28
			c0.21,0.17,0.46,0.25,0.71,0.25c0.34,0,0.68-0.15,0.91-0.44C46.28,24.63,46.19,23.91,45.69,23.52z M39.12,39.6
			c0,0.68-0.55,1.23-1.23,1.23h-19.1c-0.68,0-1.24-0.55-1.24-1.23V23.32c0-0.68,0.01-1.23,0.02-1.23c0.01,0,0.46-0.34,1-0.76
			l8.79-6.86c0.53-0.42,1.41-0.42,1.94,0l8.8,6.86c0.54,0.42,0.98,0.76,0.99,0.76c0.01,0,0.02,0.55,0.02,1.23V39.6z"/>
		<path class="st3" d="M32.03,26.32c-0.4-0.27-0.73-0.1-0.73,0.38v6.92c0,0.48,0.33,0.65,0.72,0.38l4.88-3.38
			c0.4-0.27,0.4-0.72,0-0.99L32.03,26.32z"/>
		<path class="st3" d="M24.68,26.32l-4.87,3.31c-0.4,0.27-0.4,0.72,0,0.99l4.88,3.38c0.4,0.27,0.72,0.11,0.72-0.38v-6.92
			C25.4,26.23,25.08,26.05,24.68,26.32z"/>
	</g>
</g>
<g>
	<defs>
		<rect id="SVGID_1_" x="7.09" y="7.09" width="42.52" height="42.52"/>
	</defs>
	<clipPath id="SVGID_2_">
		<use xlink:href="#SVGID_1_"  style="overflow:visible;"/>
	</clipPath>
	<path class="st7" d="M7.09,28.35c0,11.74,9.52,21.26,21.26,21.26c11.74,0,21.26-9.52,21.26-21.26c0-11.74-9.52-21.26-21.26-21.26
		C16.6,7.09,7.09,16.6,7.09,28.35"/>
</g>
<g>
	<defs>
		<circle id="SVGID_3_" cx="28.35" cy="28.35" r="21.26"/>
	</defs>
	<clipPath id="SVGID_4_">
		<use xlink:href="#SVGID_3_"  style="overflow:visible;"/>
	</clipPath>
	<path class="st8" d="M46.37,21.57l4.97-0.68l-2.05-3.48l-1.58-0.28l-1.51-2.57l-17.24,2.36l-0.26-0.76l-3,0.41l-0.18,1.11
		l-0.85,0.12l-1.66,2.18l0.33,2.44l1.99,1.65l1.04-0.14l0.24,0.86l3.02-0.33l0.28-0.65l6.44-0.88l-0.44,6.46
		c0.17,0.82,0.49,1.17,0.83,1.27c0.74,0.2,1.62-0.77,1.62-0.77l0.72-6.81l4.93,11.02c-0.2,0.41,3.33,1.97,3.33,1.97
		c0.03,0.1,0.05,0.19,0.08,0.3c0,0,3.29,11.99,3.61,12.44c0.33,0.45,3.13,0.73,2.48-1.67c-0.5-1.81-2.5-8.31-3.46-11.43L52,35.43
		l0.04-0.03c0.02-0.01,0.55-0.36,0.67-0.94c0.07-0.33-0.01-0.66-0.23-0.99C52.13,32.97,49.91,28.63,46.37,21.57"/>
	<path class="st9" d="M21.37,20.34l-0.71-0.42 M6.23,6.72L5.61,6.18"/>
	<path class="st9" d="M21.2,20.69l-0.77-0.29 M3.93,9.9L3.22,9.48"/>
	<path class="st9" d="M21.55,22.85l-0.64,0.52 M3.57,32.41l-0.72,0.4"/>
	<path class="st9" d="M21.81,23.12l-0.54,0.62 M5.77,35.66l-0.64,0.52"/>
	<path class="st9" d="M22.12,23.35l-0.42,0.71 M8.5,38.48L7.96,39.1"/>
	<line class="st9" x1="21.59" y1="20.03" x2="20.97" y2="19.49"/>
	<line class="st9" x1="19.84" y1="18.51" x2="18.7" y2="17.53"/>
	<line class="st10" x1="18.13" y1="17.04" x2="6.8" y2="7.21"/>
	<line class="st9" x1="19.37" y1="19.15" x2="18.09" y2="18.38"/>
	<line class="st11" x1="17.44" y1="17.99" x2="4.57" y2="10.28"/>
	<line class="st9" x1="19.03" y1="19.86" x2="17.63" y2="19.32"/>
	<line class="st10" x1="16.93" y1="19.05" x2="2.91" y2="13.7"/>
	<line class="st9" x1="21.1" y1="21.05" x2="20.29" y2="20.9"/>
	<line class="st9" x1="18.81" y1="20.61" x2="17.34" y2="20.33"/>
	<line class="st11" x1="16.6" y1="20.19" x2="1.87" y2="17.35"/>
	<line class="st9" x1="21.06" y1="21.43" x2="20.23" y2="21.42"/>
	<line class="st9" x1="18.73" y1="21.4" x2="17.23" y2="21.37"/>
	<line class="st11" x1="16.48" y1="21.36" x2="1.48" y2="21.12"/>
	<line class="st9" x1="21.08" y1="21.81" x2="20.27" y2="21.94"/>
	<line class="st9" x1="18.79" y1="22.18" x2="17.31" y2="22.42"/>
	<line class="st11" x1="16.57" y1="22.54" x2="1.75" y2="24.9"/>
	<line class="st9" x1="21.18" y1="22.18" x2="20.4" y2="22.45"/>
	<line class="st9" x1="18.98" y1="22.94" x2="17.56" y2="23.43"/>
	<line class="st10" x1="16.85" y1="23.68" x2="2.68" y2="28.58"/>
	<line class="st9" x1="21.33" y1="22.53" x2="20.61" y2="22.93"/>
	<line class="st9" x1="19.3" y1="23.66" x2="17.99" y2="24.39"/>
	<line class="st10" x1="17.33" y1="24.76" x2="4.22" y2="32.05"/>
	<line class="st9" x1="19.74" y1="24.31" x2="18.58" y2="25.26"/>
	<line class="st10" x1="18" y1="25.73" x2="6.35" y2="35.19"/>
	<line class="st9" x1="20.29" y1="24.88" x2="19.31" y2="26.01"/>
	<line class="st10" x1="18.81" y1="26.58" x2="8.99" y2="37.92"/>
	<line class="st9" x1="20.93" y1="25.34" x2="20.16" y2="26.63"/>
	<line class="st10" x1="19.77" y1="27.27" x2="12.06" y2="40.14"/>
	<line class="st9" x1="11.68" y1="40.79" x2="11.25" y2="41.49"/>
</g>
</svg>
