<?xml version="1.0" encoding="utf-8"?>
<!-- Generator: Adobe Illustrator 25.0.0, SVG Export Plug-In . SVG Version: 6.00 Build 0)  -->
<svg version="1.1" id="Layer_1" xmlns="http://www.w3.org/2000/svg" xmlns:xlink="http://www.w3.org/1999/xlink" x="0px" y="0px"
	 viewBox="0 0 56.69 56.69" style="enable-background:new 0 0 56.69 56.69;" xml:space="preserve">
<style type="text/css">
	.st0{display:none;}
	.st1{display:inline;}
	.st2{fill:#705A42;}
	.st3{fill:#FFFFFF;}
	.st4{display:inline;fill:#705A42;}
	.st5{fill:#539326;}
	.st6{display:inline;fill:#539326;}
	.st7{fill:#0BBBEF;}
</style>
<g class="st0">
	<g class="st1">
		<g>
			<g>
				<path class="st2" d="M2.65,28.26c0,14.09,11.43,25.51,25.51,25.51c14.09,0,25.51-11.42,25.51-25.51
					c0-14.09-11.42-25.51-25.51-25.51C14.07,2.75,2.65,14.17,2.65,28.26z"/>
			</g>
		</g>
	</g>
	<g class="st1">
		<rect x="7.6" y="25.12" class="st3" width="41.12" height="9.35"/>
	</g>
	<g class="st1">
		<path class="st3" d="M17.31,45.77v-5.71h1.52v0.32c0,0,0.79-0.46,1.35-0.46c0.64,0,1.09,0.17,1.43,0.54c0,0,1.05-0.54,1.92-0.54
			c1.56,0,2.01,0.91,2.01,2.75v3.1h-1.53v-3.05c0-0.87-0.12-1.43-0.8-1.43c-0.46,0-1.06,0.22-1.06,0.22s0.05,0.86,0.05,1.3v2.96
			h-1.53v-2.94c0-1.03-0.09-1.54-0.8-1.54c-0.5,0-1.02,0.21-1.02,0.21v4.27H17.31z"/>
		<path class="st3" d="M26.79,42.73v-1.07l1.29-1.3c0.78-0.8,1.22-1.27,1.22-1.85c0-0.61-0.28-0.79-0.98-0.79
			c-0.62,0-1.42,0.14-1.42,0.14l-0.06-0.97c0,0,0.89-0.27,1.81-0.27c1.38,0,1.96,0.6,1.96,1.72c0,0.93-0.35,1.46-1.35,2.36
			l-1.05,0.95h2.5v1.1H26.79z"/>
		<path class="st3" d="M34.95,37.56l1.35,0.48L33,46.16l-1.35-0.48L34.95,37.56z"/>
		<path class="st3" d="M37.41,37.77h1.53v8h-1.53V37.77z"/>
	</g>
	<g class="st1">
		<path class="st3" d="M13.7,12.07h1.82v10.05h-2v-7.67l-2.07,1.4l-0.91-1.57L13.7,12.07z"/>
		<path class="st3" d="M24.76,17.16c0,3.81-1.33,5.15-3.7,5.15c-2.37,0-3.7-1.34-3.7-5.15c0-3.81,1.33-5.27,3.7-5.27
			C23.43,11.89,24.76,13.35,24.76,17.16z M19.4,17.16c0,2.47,0.51,3.32,1.66,3.32s1.63-0.85,1.63-3.32c0-2.62-0.48-3.44-1.63-3.44
			S19.4,14.54,19.4,17.16z"/>
		<path class="st3" d="M26.49,17.14h4.28V19h-4.28V17.14z"/>
		<path class="st3" d="M34.36,12.07h1.82v10.05h-2v-7.67l-2.07,1.4l-0.91-1.57L34.36,12.07z"/>
		<path class="st3" d="M42.58,20.46h-4.05v-1.6l2.36-6.79h2.2l-2.56,6.56h2.05v-2.82h2v2.82h0.91v1.83h-0.91v1.66h-2V20.46z"/>
	</g>
</g>
<g class="st0">
	<path class="st4" d="M2.65,28.22c0,14.09,11.42,25.51,25.51,25.51c14.09,0,25.51-11.42,25.51-25.51
		c0-14.09-11.42-25.51-25.51-25.51C14.07,2.71,2.65,14.13,2.65,28.22z"/>
	<g class="st1">
		<path class="st3" d="M45.51,23.66l-4.35-3.4v-5.5c0-0.75-0.61-1.36-1.36-1.36h-1.77c-0.75,0-1.36,0.61-1.36,1.36v1.99l-6.93-5.41
			c-0.9-0.7-2.27-0.7-3.17,0l-15.76,12.3c-0.5,0.39-0.59,1.11-0.2,1.61c0.39,0.5,1.11,0.59,1.61,0.2l2.92-2.28c0,0.35,0,0.72,0,1.12
			v16.13c0,1.56,1.27,2.83,2.83,2.83h20.37c1.56,0,2.83-1.28,2.83-2.83V24.31c0-0.4,0-0.78,0-1.12l2.92,2.28
			c0.21,0.16,0.46,0.24,0.71,0.24c0.34,0,0.68-0.15,0.91-0.44C46.1,24.77,46.01,24.05,45.51,23.66z M38.94,39.74
			c0,0.68-0.55,1.23-1.23,1.23h-19.1c-0.68,0-1.23-0.56-1.23-1.23V23.46c0-0.68,0.01-1.23,0.02-1.23c0.01,0,0.46-0.34,0.99-0.76
			l8.8-6.86c0.54-0.42,1.41-0.42,1.95,0l8.8,6.86c0.54,0.42,0.98,0.76,0.99,0.76c0.01,0,0.02,0.55,0.02,1.23V39.74z"/>
		<path class="st3" d="M28.62,20.6c-0.28-0.4-0.72-0.4-1,0l-3.31,4.87c-0.27,0.4-0.1,0.73,0.39,0.73h6.92
			c0.48,0,0.65-0.33,0.38-0.72L28.62,20.6z"/>
	</g>
</g>
<g class="st0">
	<g class="st1">
		<g>
			<g>
				<path class="st5" d="M2.68,28.22c0,14.09,11.42,25.51,25.51,25.51c14.09,0,25.51-11.42,25.51-25.51
					c0-14.09-11.42-25.51-25.51-25.51C14.11,2.71,2.68,14.14,2.68,28.22z"/>
			</g>
		</g>
	</g>
	<g class="st1">
		<rect x="7.63" y="25.08" class="st3" width="41.12" height="9.35"/>
	</g>
	<g class="st1">
		<path class="st3" d="M17.34,45.73v-5.71h1.52v0.32c0,0,0.79-0.46,1.35-0.46c0.64,0,1.09,0.17,1.43,0.54c0,0,1.05-0.54,1.92-0.54
			c1.55,0,2.01,0.91,2.01,2.75v3.1h-1.53v-3.05c0-0.87-0.11-1.43-0.8-1.43c-0.46,0-1.06,0.22-1.06,0.22s0.05,0.86,0.05,1.3v2.96
			h-1.53V42.8c0-1.03-0.09-1.54-0.8-1.54c-0.5,0-1.02,0.21-1.02,0.21v4.27H17.34z"/>
		<path class="st3" d="M26.82,42.69v-1.07l1.29-1.31c0.79-0.8,1.22-1.27,1.22-1.85c0-0.61-0.28-0.79-0.99-0.79
			c-0.62,0-1.42,0.14-1.42,0.14l-0.06-0.98c0,0,0.89-0.27,1.81-0.27c1.38,0,1.96,0.6,1.96,1.72c0,0.93-0.36,1.46-1.35,2.36
			l-1.05,0.95h2.5v1.1H26.82z"/>
		<path class="st3" d="M34.98,37.53l1.35,0.48l-3.29,8.11l-1.35-0.48L34.98,37.53z"/>
		<path class="st3" d="M37.44,37.73h1.53v8h-1.53V37.73z"/>
	</g>
	<g class="st1">
		<path class="st3" d="M23.6,10.77h2.16v11.32h-2.37v-8.64l-2.45,1.58l-1.08-1.77L23.6,10.77z"/>
		<path class="st3" d="M37.39,16.5c0,4.29-1.58,5.8-4.39,5.8s-4.39-1.51-4.39-5.8c0-4.29,1.58-5.93,4.39-5.93
			S37.39,12.21,37.39,16.5z M31.04,16.5c0,2.78,0.6,3.74,1.97,3.74c1.37,0,1.94-0.96,1.94-3.74c0-2.95-0.57-3.87-1.94-3.87
			C31.65,12.62,31.04,13.55,31.04,16.5z"/>
	</g>
</g>
<g class="st0">
	<path class="st6" d="M2.82,28.08c0,14.09,11.42,25.51,25.51,25.51c14.09,0,25.51-11.41,25.51-25.51
		c0-14.09-11.42-25.51-25.51-25.51C14.24,2.57,2.82,13.99,2.82,28.08z"/>
	<g class="st1">
		<path class="st3" d="M45.69,23.52l-4.35-3.4v-5.5c0-0.75-0.61-1.36-1.36-1.36h-1.77c-0.75,0-1.36,0.61-1.36,1.36v1.99l-6.93-5.41
			c-0.9-0.71-2.27-0.7-3.17,0l-15.76,12.3c-0.5,0.39-0.59,1.11-0.2,1.61c0.39,0.5,1.11,0.59,1.61,0.2l2.92-2.28
			c0,0.34,0,0.72,0,1.12V40.3c0,1.56,1.28,2.84,2.84,2.84h20.37c1.56,0,2.83-1.28,2.83-2.84V24.17c0-0.4,0-0.78,0-1.12l2.92,2.28
			c0.21,0.17,0.46,0.25,0.71,0.25c0.34,0,0.68-0.15,0.91-0.44C46.28,24.63,46.19,23.91,45.69,23.52z M39.12,39.6
			c0,0.68-0.55,1.23-1.23,1.23h-19.1c-0.68,0-1.24-0.55-1.24-1.23V23.32c0-0.68,0.01-1.23,0.02-1.23c0.01,0,0.46-0.34,1-0.76
			l8.79-6.86c0.53-0.42,1.41-0.42,1.94,0l8.8,6.86c0.54,0.42,0.98,0.76,0.99,0.76c0.01,0,0.02,0.55,0.02,1.23V39.6z"/>
		<path class="st3" d="M32.03,26.32c-0.4-0.27-0.73-0.1-0.73,0.38v6.92c0,0.48,0.33,0.65,0.72,0.38l4.88-3.38
			c0.4-0.27,0.4-0.72,0-0.99L32.03,26.32z"/>
		<path class="st3" d="M24.68,26.32l-4.87,3.31c-0.4,0.27-0.4,0.72,0,0.99l4.88,3.38c0.4,0.27,0.72,0.11,0.72-0.38v-6.92
			C25.4,26.23,25.08,26.05,24.68,26.32z"/>
	</g>
</g>
<g>
	<g>
		<path class="st7" d="M6.55,27.68c0,11.74,9.52,21.26,21.26,21.26c11.74,0,21.26-9.52,21.26-21.26S39.55,6.42,27.81,6.42
			C16.07,6.42,6.55,15.94,6.55,27.68z"/>
	</g>
	<polygon points="23.46,21.11 30.76,29.98 29.82,30.78 22.53,21.91 	"/>
	<path d="M21.8,22.5c0,0-6.27,5.45-8.22,4.59c0,0,1.42,0.8,2.93,1.64c0.15,0.08,1.15,0.15,4.09-2.05c0.13-0.09-1.15,2.03-3.08,2.6
		c0,0,1.8,1.05,2.08,1.17c0.68,0.3,3.04-1.15,3.04-1.15s-0.18,0.47-0.6,1.03c-0.42,0.56-1.01,0.88-1.01,0.88s2.12,1.31,3.68,1.42
		c1.28,0.09,3.44-0.2,4.28-1.33L21.8,22.5z"/>
	<g>
		<path d="M23.39,38.75h-3.25v3.63h-1.78v-8.75h1.78v3.58h3.25v-3.58h1.78v8.75h-1.78V38.75z"/>
		<path d="M26.35,45.35v-0.88l1.06-1.08c0.65-0.67,1.01-1.06,1.01-1.54c0-0.51-0.23-0.66-0.81-0.66c-0.51,0-1.17,0.11-1.17,0.11
			l-0.05-0.81c0,0,0.74-0.23,1.49-0.23c1.13,0,1.61,0.5,1.61,1.43c0,0.77-0.29,1.21-1.11,1.96l-0.87,0.79h2.06v0.91H26.35z"/>
		<path d="M30.33,38.05c0-2.96,0.87-4.58,3.63-4.58c2.75,0,3.63,1.62,3.63,4.58c0,2.96-0.88,4.48-3.63,4.48
			C31.2,42.53,30.33,41.01,30.33,38.05z M35.76,38.05c0-2.02-0.36-3.04-1.8-3.04c-1.44,0-1.8,1.02-1.8,3.04
			c0,2.02,0.36,2.94,1.8,2.94C35.4,40.99,35.76,40.07,35.76,38.05z"/>
	</g>
	<path d="M41.75,13.51L41.75,13.51L41.75,13.51c-0.04-0.03-0.77-0.64-3.07-0.37c-2.36,0.28-3.21,2.85-6.08,5.2
		c-2.87,2.36-5.64-0.12-5.64-0.12l-2.95,2.38l7.29,8.88l2.95-2.38c0,0-1.89-3.2,0.98-5.55c2.87-2.36,5.55-2.7,6.28-4.95
		C42.23,14.39,41.77,13.55,41.75,13.51z M39.12,16.59c-0.48,0-0.87-0.4-0.87-0.88c0-0.48,0.39-0.87,0.87-0.87
		c0.48,0,0.87,0.39,0.87,0.87C39.99,16.2,39.6,16.59,39.12,16.59z"/>
	<path d="M18.33,20.88c3.19,0,3.34-2.88,2.61-5.1c-0.81-2.46-2.61-4.53-2.61-4.53s-1.8,2.07-2.61,4.53
		C15,18,15.14,20.88,18.33,20.88z"/>
</g>
</svg>
